<svg data-v-423bf9ae="" xmlns="http://www.w3.org/2000/svg" viewBox="0 0 396.96345244053447 60" class="font"><!----><!----><!----><g data-v-423bf9ae="" id="644ac0b5-6ee5-43c7-aede-3e35066a3ea0" fill="black" transform="matrix(4.769475386636096,0,0,4.769475386636096,-0.47694845326850555,-16.645469860100974)"><path d="M0.20 7.35L0.10 5.12L7.45 5.12L7.36 7.35L6.57 7.35L6.29 6.08L4.72 6.08L4.72 12.75L5.91 13.09L5.91 13.72L1.65 13.72L1.65 13.09L2.83 12.75L2.83 6.08L1.23 6.08L0.97 7.35L0.20 7.35ZM11.26 13.86L11.26 13.86Q7.90 13.86 7.90 10.30L7.90 10.30L7.90 10.30Q7.90 8.37 8.79 7.53L8.79 7.53L8.79 7.53Q9.69 6.69 11.12 6.69L11.12 6.69L11.12 6.69Q12.59 6.69 13.26 7.34L13.26 7.34L13.26 7.34Q13.93 7.99 13.93 9.38L13.93 9.38L13.93 9.38Q13.93 9.98 13.87 10.30L13.87 10.30L9.93 10.30L9.93 10.64L9.93 10.64Q9.93 11.87 10.39 12.34L10.39 12.34L10.39 12.34Q10.85 12.81 11.82 12.81L11.82 12.81L11.82 12.81Q12.54 12.81 13.75 12.47L13.75 12.47L13.86 13.09L13.86 13.09Q12.84 13.86 11.26 13.86L11.26 13.86ZM9.95 9.55L12.03 9.39L12.03 9.10L12.03 9.10Q12.03 8.40 11.86 8.03L11.86 8.03L11.86 8.03Q11.69 7.66 11.19 7.66L11.19 7.66L11.19 7.66Q10.49 7.66 10.23 8.11L10.23 8.11L10.23 8.11Q9.98 8.57 9.95 9.55L9.95 9.55ZM17.85 13.86L17.85 13.86Q16.21 13.86 15.42 12.87L15.42 12.87L15.42 12.87Q14.63 11.87 14.63 10.30L14.63 10.30L14.63 10.30Q14.63 8.68 15.41 7.69L15.41 7.69L15.41 7.69Q16.20 6.69 17.85 6.69L17.85 6.69L17.85 6.69Q18.55 6.69 19.12 6.80L19.12 6.80L19.12 6.80Q19.70 6.92 20.31 7.14L20.31 7.14L20.03 9.10L19.21 9.10L18.91 7.81L18.91 7.81Q18.47 7.63 18.06 7.63L18.06 7.63L18.06 7.63Q17.23 7.63 16.95 8.32L16.95 8.32L16.95 8.32Q16.66 9.00 16.66 10.28L16.66 10.28L16.66 10.28Q16.66 11.30 16.83 11.84L16.83 11.84L16.83 11.84Q17.00 12.39 17.33 12.60L17.33 12.60L17.33 12.60Q17.65 12.81 18.20 12.81L18.20 12.81L18.20 12.81Q19.07 12.81 20.23 12.47L20.23 12.47L20.34 13.09L20.34 13.09Q19.88 13.43 19.22 13.64L19.22 13.64L19.22 13.64Q18.55 13.86 17.85 13.86L17.85 13.86ZM29.09 13.72L25.26 13.72L25.26 13.09L26.10 12.74L26.10 8.62L26.10 8.62Q26.10 8.13 25.92 7.98L25.92 7.98L25.92 7.98Q25.75 7.83 25.19 7.83L25.19 7.83L25.19 7.83Q24.37 7.83 23.79 7.99L23.79 7.99L23.79 12.74L24.63 13.09L24.63 13.72L20.80 13.72L20.80 13.02L21.90 12.74L21.90 4.86L20.80 4.70L20.80 4.03L23.17 3.49L23.79 3.49L23.79 7.25L23.79 7.25Q24.19 7.06 24.95 6.87L24.95 6.87L24.95 6.87Q25.70 6.69 26.28 6.69L26.28 6.69L26.28 6.69Q27.02 6.69 27.50 7.05L27.50 7.05L27.50 7.05Q27.99 7.41 27.99 8.15L27.99 8.15L27.99 12.74L29.09 13.09L29.09 13.72ZM40.19 13.72L36.36 13.72L36.36 13.09L37.20 12.74L37.20 8.62L37.20 8.62Q37.20 8.13 37.02 7.98L37.02 7.98L37.02 7.98Q36.85 7.83 36.29 7.83L36.29 7.83L36.29 7.83Q35.48 7.83 34.89 7.99L34.89 7.99L34.89 12.74L35.73 13.09L35.73 13.72L31.91 13.72L31.91 13.02L33.00 12.74L33.00 4.86L31.91 4.70L31.91 4.03L34.27 3.49L34.89 3.49L34.89 7.25L34.89 7.25Q35.29 7.06 36.05 6.87L36.05 6.87L36.05 6.87Q36.81 6.69 37.38 6.69L37.38 6.69L37.38 6.69Q38.12 6.69 38.61 7.05L38.61 7.05L38.61 7.05Q39.09 7.41 39.09 8.15L39.09 8.15L39.09 12.74L40.19 13.09L40.19 13.72ZM44.16 6.69L44.16 6.69Q45.95 6.69 46.80 7.69L46.80 7.69L46.80 7.69Q47.64 8.68 47.64 10.30L47.64 10.30L47.64 10.30Q47.64 11.87 46.79 12.87L46.79 12.87L46.79 12.87Q45.93 13.86 44.16 13.86L44.16 13.86L44.16 13.86Q42.42 13.86 41.57 12.87L41.57 12.87L41.57 12.87Q40.73 11.87 40.73 10.30L40.73 10.30L40.73 10.30Q40.73 8.68 41.56 7.69L41.56 7.69L41.56 7.69Q42.39 6.69 44.16 6.69L44.16 6.69ZM45.61 10.28L45.61 10.28Q45.61 9.00 45.29 8.32L45.29 8.32L45.29 8.32Q44.97 7.63 44.13 7.63L44.13 7.63L44.13 7.63Q43.34 7.63 43.05 8.32L43.05 8.32L43.05 8.32Q42.76 9.00 42.76 10.28L42.76 10.28L42.76 10.28Q42.76 11.54 43.07 12.22L43.07 12.22L43.07 12.22Q43.39 12.91 44.21 12.91L44.21 12.91L44.21 12.91Q45.02 12.91 45.32 12.23L45.32 12.23L45.32 12.23Q45.61 11.55 45.61 10.28L45.61 10.28ZM51.30 7.63L51.30 7.63Q50.76 7.63 50.46 7.83L50.46 7.83L50.46 7.83Q50.15 8.04 50.15 8.39L50.15 8.39L50.15 8.39Q50.15 8.68 50.29 8.88L50.29 8.88L50.29 8.88Q50.44 9.07 50.81 9.20L50.81 9.20L52.40 9.70L52.40 9.70Q53.13 9.93 53.47 10.38L53.47 10.38L53.47 10.38Q53.82 10.84 53.82 11.68L53.82 11.68L53.82 11.68Q53.82 12.68 53.05 13.27L53.05 13.27L53.05 13.27Q52.28 13.86 50.90 13.86L50.90 13.86L50.90 13.86Q50.36 13.86 49.71 13.77L49.71 13.77L49.71 13.77Q49.06 13.68 48.57 13.51L48.57 13.51L48.73 11.56L49.55 11.56L49.84 12.74L49.84 12.74Q50.32 12.91 50.85 12.91L50.85 12.91L50.85 12.91Q52.22 12.91 52.22 12.05L52.22 12.05L52.22 12.05Q52.22 11.75 52.06 11.61L52.06 11.61L52.06 11.61Q51.90 11.47 51.45 11.31L51.45 11.31L49.92 10.79L49.92 10.79Q49.25 10.57 48.92 10.12L48.92 10.12L48.92 10.12Q48.58 9.66 48.58 8.90L48.58 8.90L48.58 8.90Q48.58 7.87 49.27 7.28L49.27 7.28L49.27 7.28Q49.95 6.69 51.32 6.69L51.32 6.69L51.32 6.69Q51.87 6.69 52.45 6.80L52.45 6.80L52.45 6.80Q53.03 6.90 53.52 7.10L53.52 7.10L53.33 8.86L52.54 8.86L52.26 7.83L52.26 7.83Q52.02 7.73 51.81 7.68L51.81 7.68L51.81 7.68Q51.60 7.63 51.30 7.63L51.30 7.63ZM54.53 16.07L54.53 15.37L55.62 15.09L55.62 8.01L54.36 7.91L54.36 7.21L54.36 7.21Q55.26 6.99 56.37 6.84L56.37 6.84L56.37 6.84Q57.48 6.69 58.49 6.69L58.49 6.69L58.49 6.69Q59.81 6.69 60.57 7.10L60.57 7.10L60.57 7.10Q61.33 7.50 61.66 8.30L61.66 8.30L61.66 8.30Q61.99 9.09 61.99 10.30L61.99 10.30L61.99 10.30Q61.99 11.87 61.16 12.80L61.16 12.80L61.16 12.80Q60.33 13.72 58.79 13.72L58.79 13.72L58.79 13.72Q58.27 13.72 57.61 13.50L57.61 13.50L57.79 12.77L57.79 12.77Q58.10 12.84 58.35 12.84L58.35 12.84L58.35 12.84Q59.05 12.84 59.40 12.53L59.40 12.53L59.40 12.53Q59.75 12.22 59.86 11.68L59.86 11.68L59.86 11.68Q59.96 11.13 59.96 10.25L59.96 10.25L59.96 10.25Q59.96 9.10 59.67 8.37L59.67 8.37L59.67 8.37Q59.37 7.63 58.49 7.63L58.49 7.63L58.49 7.63Q57.93 7.63 57.51 7.76L57.51 7.76L57.51 15.04L59.02 15.33L59.02 16.07L54.53 16.07ZM64.72 5.80L64.72 5.80Q64.25 5.80 63.88 5.47L63.88 5.47L63.88 5.47Q63.52 5.14 63.52 4.68L63.52 4.68L63.52 4.68Q63.52 4.20 63.88 3.85L63.88 3.85L63.88 3.85Q64.25 3.50 64.72 3.50L64.72 3.50L64.72 3.50Q65.20 3.50 65.53 3.85L65.53 3.85L65.53 3.85Q65.87 4.20 65.87 4.68L65.87 4.68L65.87 4.68Q65.87 5.15 65.53 5.47L65.53 5.47L65.53 5.47Q65.20 5.80 64.72 5.80L64.72 5.80ZM66.77 13.72L62.69 13.72L62.69 13.02L63.78 12.74L63.78 8.06L62.69 7.91L62.69 7.24L65.06 6.69L65.67 6.69L65.67 12.74L66.77 13.02L66.77 13.72ZM71.40 13.54L71.40 13.54Q70.97 13.68 70.38 13.76L70.38 13.76L70.38 13.76Q69.80 13.85 69.40 13.85L69.40 13.85L69.40 13.85Q68.67 13.85 68.41 13.54L68.41 13.54L68.41 13.54Q68.15 13.24 68.15 12.75L68.15 12.75L68.15 7.84L67.14 7.84L67.14 7.18L68.31 6.66L69.16 5.26L70.01 5.26L70.01 6.83L71.60 6.83L71.60 7.92L70.01 7.83L70.01 12.53L71.40 12.84L71.40 13.54ZM75.08 7.76L75.08 7.76Q74.55 7.76 74.07 7.92L74.07 7.92L73.77 9.10L72.94 9.10L72.70 7.21L72.70 7.21Q74.10 6.69 75.60 6.69L75.60 6.69L75.60 6.69Q76.73 6.69 77.30 7.07L77.30 7.07L77.30 7.07Q77.87 7.45 77.87 8.44L77.87 8.44L77.87 12.56L78.96 12.95L78.96 13.55L78.96 13.55Q78.40 13.69 78.09 13.74L78.09 13.74L78.09 13.74Q77.78 13.79 77.42 13.79L77.42 13.79L77.42 13.79Q76.93 13.79 76.53 13.60L76.53 13.60L76.53 13.60Q76.13 13.41 76.02 13.05L76.02 13.05L76.02 13.05Q75.46 13.47 74.98 13.66L74.98 13.66L74.98 13.66Q74.51 13.86 73.95 13.86L73.95 13.86L73.95 13.86Q73.18 13.86 72.74 13.40L72.74 13.40L72.74 13.40Q72.30 12.94 72.30 12.14L72.30 12.14L72.30 12.14Q72.30 11.47 72.71 10.89L72.71 10.89L72.71 10.89Q73.12 10.30 74.09 10.11L74.09 10.11L75.98 9.72L75.98 8.74L75.98 8.74Q75.98 8.19 75.77 7.97L75.77 7.97L75.77 7.97Q75.57 7.76 75.08 7.76L75.08 7.76ZM75.14 10.74L75.14 10.74Q74.59 10.88 74.37 11.17L74.37 11.17L74.37 11.17Q74.14 11.47 74.14 11.94L74.14 11.94L74.14 11.94Q74.14 12.73 74.87 12.73L74.87 12.73L74.87 12.73Q75.14 12.73 75.45 12.61L75.45 12.61L75.45 12.61Q75.77 12.49 75.98 12.35L75.98 12.35L75.98 10.53L75.14 10.74ZM83.33 13.72L79.25 13.72L79.25 13.02L80.35 12.74L80.35 4.86L79.25 4.70L79.25 4.03L81.62 3.49L82.24 3.49L82.24 12.74L83.33 13.02L83.33 13.72Z"></path></g><!----><!----></svg>